<svg width="214" height="80" fill="none" xmlns="http://www.w3.org/2000/svg"><g clip-path="url(#clip0_402_118)" fill="#fff"><path d="M95.907 35.22l1.015-2.03c-1.489-.981-3.552-1.624-5.684-1.624-3.248 0-6.191 1.455-6.191 4.838-.034 6.293 9.947 4.094 9.845 8.424-.034 1.793-1.725 2.605-3.823 2.605-2.097 0-4.398-.846-5.92-2.267l-1.016 1.929c1.692 1.624 4.297 2.504 6.835 2.504 3.417 0 6.53-1.557 6.53-5.041 0-6.395-9.947-4.331-9.947-8.357 0-1.692 1.522-2.402 3.518-2.402 1.658 0 3.45.541 4.838 1.42zm12.962-3.62c-5.176.034-8.83 3.688-8.83 9 0 5.31 3.62 8.999 8.864 8.999 2.977 0 5.481-1.083 7.172-2.944l-1.454-1.522c-1.388 1.455-3.316 2.267-5.515 2.267-3.485 0-6.022-2.301-6.462-5.82h14.548c.27-6.022-2.571-9.98-8.323-9.98zm-6.225 7.883c.372-3.451 2.808-5.684 6.225-5.684 3.485 0 5.785 2.233 5.955 5.684h-12.18zm31.528-3.417l1.455-1.827c-1.624-1.658-3.992-2.64-6.868-2.64-5.143 0-8.83 3.723-8.83 9 0 5.312 3.654 9 8.83 9 3.079 0 5.548-1.15 7.138-3.08l-1.522-1.555c-1.252 1.488-3.18 2.3-5.515 2.3-3.687 0-6.326-2.706-6.326-6.665 0-3.924 2.639-6.63 6.326-6.63 2.166 0 3.959.777 5.312 2.097zm9.153-.406V31.7h-2.639v17.796h2.639v-9.473c.305-3.586 2.639-5.92 6.394-5.853V31.6c-3.011.034-5.21 1.455-6.394 4.06zm16.986-4.06c-5.176.034-8.83 3.688-8.83 9 0 5.31 3.62 8.999 8.864 8.999 2.977 0 5.481-1.083 7.172-2.944l-1.454-1.522c-1.387 1.455-3.316 2.267-5.515 2.267-3.485 0-6.022-2.301-6.462-5.82h14.548c.271-6.022-2.571-9.98-8.323-9.98zm-6.225 7.883c.372-3.451 2.808-5.684 6.225-5.684 3.485 0 5.786 2.233 5.955 5.684h-12.18zm27.536 6.767c-.981.574-1.929.879-2.842.913-1.523 0-2.368-.88-2.368-3.045v-9.812h5.65v-2.063h-5.65v-4.67h-2.606v4.67h-2.571v2.063h2.571v10.252c0 3.518 1.929 5.074 4.534 5.04 1.421 0 2.774-.473 4.026-1.319l-.744-2.03zM65.267 24.416c-4.125-4.13-9.605-6.402-15.434-6.402-12.04 0-21.833 9.802-21.833 21.85 0 12.049 9.793 21.85 21.833 21.85a21.66 21.66 0 0015.434-6.402 21.711 21.711 0 006.394-15.448c0-5.834-2.268-11.322-6.394-15.447zM49.833 60.203c-11.205 0-20.321-9.124-20.321-20.338 0-11.213 9.116-20.338 20.32-20.338 11.205 0 20.32 9.125 20.32 20.338 0 11.214-9.115 20.338-20.32 20.338z"/><path d="M57 40.38c-1.399-1.25-3.23-2.084-5.004-2.893l-.013-.004c-3.13-1.43-5.834-2.666-5.642-5.59.083-1.114.891-1.787 1.556-2.15.747-.41 1.739-.655 2.657-.655.109 0 .218.004.323.009 2.67.179 4.776 1.31 6.835 3.662l.122.144.144-.122.804-.7.145-.126-.127-.144c-2.294-2.631-4.785-3.955-7.831-4.16a6.99 6.99 0 00-.721-.013h-.131c-1.997 0-4.187.655-5.852 1.756-1.988 1.315-3.102 3.125-3.133 5.095-.079 4.794 3.841 6.407 7.298 7.836l.009.004.035.013c3.059 1.268 5.698 2.36 5.641 5.288-.026 1.931-2.788 2.998-4.684 2.998h-.267v.004c-2.827-.083-5.353-1.302-7.508-3.614l-.13-.14-.14.127-.783.725-.14.132.131.14c2.448 2.634 5.467 4.05 8.736 4.09h.149c2.11 0 4.405-.568 6.135-1.526 2.168-1.184 3.43-2.91 3.562-4.859.148-2.141-.564-3.885-2.177-5.327zm-10.148-4.169c1.246 1.066 2.933 1.831 4.563 2.57l.03.013c1.726.795 3.36 1.547 4.545 2.591 1.311 1.154 1.866 2.491 1.748 4.209-.11 1.7-1.372 2.836-2.522 3.522.223-.455.346-.949.359-1.473.026-1.766-.651-3.177-2.076-4.322-1.245-1-2.897-1.678-4.497-2.338-3.325-1.368-6.467-2.661-6.41-6.48.017-1.469.9-2.858 2.486-3.912.053-.035.105-.07.162-.105-.188.411-.293.84-.32 1.29-.126 1.77.508 3.22 1.932 4.435z"/></g><defs><clipPath id="clip0_402_118"><path fill="#fff" transform="translate(28 18)" d="M0 0h154.366v43.84H0z"/></clipPath></defs></svg>