<svg width="215" height="80" fill="none" xmlns="http://www.w3.org/2000/svg"><g style="mix-blend-mode:luminosity" fill="#fff"><path d="M54.88 49.196l-9.638 1.082 5.655-13.06-5.795-7.903 14.091-1.608 3.829-8.795 8.388 11.401 9.638-1.082-5.634 12.996 5.753 7.847-14.014 1.595-3.885 8.928-8.388-11.401zm4.004-.864c-.372.182-.765.33-1.173.442l-.365.106 5.437 7.39 1.932-4.44-.351-.042a6.957 6.957 0 01-4.742-2.803l-.541-.745-.197.092zm-1.89-6.695l4.384 6.063a4.775 4.775 0 004.377 1.938l11.436-1.3-4.552-6.223a4.586 4.586 0 00-.78-.83l-.267-.224-3.26 7.362-5.668-7.503-5.67.717zm.197-7.39a4.743 4.743 0 00-3.856 2.838l-4.595 10.6 7.63-.857a4.81 4.81 0 001.102-.26l.323-.119-4.72-6.519 9.308-1.18 2.212-5.29-7.404.787zm7.2 5.353l3.45 4.573 2.108-4.756.927-2.093a4.805 4.805 0 00-.52-4.777l-6.842-9.301-3.077 7.067c-.155.351-.26.716-.33 1.089l-.056.344 7.98-.843-3.64 8.697zm8.381-7.243l.134.323a7.029 7.029 0 01-.05 5.529l-.372.843.183.126c.344.232.668.5.97.794l.273.267 3.646-8.416-4.784.534zm-23.687-1.292l2.908 3.962.21-.274a6.983 6.983 0 014.756-2.677l.914-.098.014-.225a6.47 6.47 0 01.232-1.363l.105-.38-9.14 1.055z"/><path d="M61.098 60.766c-6.055-.583-11.486-3.73-15.047-8.718l2.437-.274c.4.492.83.97 1.272 1.412a18.733 18.733 0 009.575 5.184l1.763 2.396zm5.082-2.256c3.926-.631 7.488-2.472 10.326-5.317.253-.253.513-.527.766-.815l2.957-.337c-3.547 4.98-8.978 8.135-15.026 8.725l.977-2.255zm14.648-12.019a19.032 19.032 0 001.215-6.737c0-2.051-.323-4.067-.955-5.992l1.187-2.733a20.994 20.994 0 011.876 8.725c0 3.042-.625 5.971-1.869 8.711l-1.454-1.974zM44.008 48.5a20.953 20.953 0 01-1.883-8.739c0-3.07.64-6.027 1.904-8.788l1.447 1.974a19.017 19.017 0 00-1.25 6.814c0 2.059.323 4.082.962 6.014l-1.18 2.725zm2.137-21.159c3.554-4.903 8.95-8.015 14.948-8.591l-.983 2.255c-3.927.632-7.503 2.473-10.34 5.325-.211.218-.43.442-.647.681l-2.978.33zm31.638.401c-.407-.499-.836-.97-1.279-1.42a18.742 18.742 0 00-9.56-5.177l-1.757-2.395c6.042.583 11.472 3.73 15.027 8.718l-2.43.274zm90.69 18.888a3.648 3.648 0 01-3.645-3.645v-5.594h-2.262v-2.014h2.262v-2.078h2.014v2.078h3.772v2.014h-3.772v5.594a1.64 1.64 0 001.639 1.639h1.758a1.89 1.89 0 011.886 1.886v.128h-3.652v-.008zM96.15 33.299h-2.013v13.33h2.014V33.3zm19.622 0h-2.014v13.33h2.014V33.3zm2.518 13.331v-.12a1.89 1.89 0 011.886-1.886h6.858c.503 0 .975-.2 1.318-.568.352-.368.528-.847.504-1.35-.048-.976-.871-1.735-1.87-1.735h-4.86a3.834 3.834 0 01-3.836-3.94c.056-2.054 1.814-3.732 3.916-3.732h7.713v.127a1.89 1.89 0 01-1.886 1.887h-5.915c-.503 0-.975.2-1.318.567a1.808 1.808 0 00-.504 1.35c.048.976.871 1.735 1.87 1.735h4.86a3.834 3.834 0 013.836 3.94c-.056 2.054-1.814 3.733-3.916 3.733h-8.656v-.008zm-8.473 0a2.141 2.141 0 01-1.67-.8l-3.581-4.483h-2.509v-.128a1.89 1.89 0 011.886-1.886h3.269c1.11 0 2.014-.904 2.014-2.014v-1.51a.502.502 0 00-.504-.504h-7.544a.502.502 0 00-.504.503V46.63h-2.006V34.68c0-.759.623-1.382 1.383-1.382h9.814c.759 0 1.383.623 1.383 1.382v2.646a4.057 4.057 0 01-3.405 3.98l-.216.032 4.236 5.299h-2.046v-.008zm41.8 0a3.648 3.648 0 01-3.644-3.645v-3.964a3.648 3.648 0 013.644-3.645h5.283c.991 0 1.918.392 2.613 1.103a3.624 3.624 0 011.031 2.646c-.056 1.958-1.726 3.548-3.724 3.548h-6.082v-.128a1.89 1.89 0 011.886-1.886h4.236c.863 0 1.59-.647 1.67-1.478a1.631 1.631 0 00-1.622-1.79h-5.283a1.64 1.64 0 00-1.638 1.638v3.964a1.64 1.64 0 001.638 1.638h7.041a1.89 1.89 0 011.886 1.886v.128h-8.935v-.016zm-5.782 0a1.89 1.89 0 01-1.887-1.887v-5.346a1.821 1.821 0 00-1.822-1.822H135.9a.501.501 0 00-.503.503v8.552h-2.014v-9.687c0-.76.623-1.383 1.382-1.383h7.361a3.837 3.837 0 013.836 3.837v7.233h-.127z"/></g></svg>