<svg width="215" height="80" fill="none" xmlns="http://www.w3.org/2000/svg"><g clip-path="url(#clip0)"><path d="M72.078 42.914c0-5.161 3.78-8.876 8.975-8.876 5.194 0 8.975 3.715 8.975 8.876s-3.781 8.876-8.975 8.876c-5.162 0-8.975-3.715-8.975-8.876zm14.202 0c0-3.221-2.071-5.654-5.227-5.654s-5.194 2.433-5.194 5.654c0 3.189 2.038 5.655 5.194 5.655 3.156-.033 5.227-2.466 5.227-5.655zm5.158 6.146l1.972-2.794a7.58 7.58 0 005.457 2.3c2.005 0 2.992-.92 2.992-1.906 0-3.024-9.896-.953-9.896-7.43 0-2.86 2.466-5.227 6.51-5.227 2.728 0 4.996.822 6.706 2.4l-2.038 2.663c-1.381-1.282-3.255-1.874-4.997-1.874-1.578 0-2.433.69-2.433 1.71 0 2.728 9.862.887 9.862 7.298 0 3.156-2.235 5.523-6.87 5.523-3.288.065-5.655-1.052-7.266-2.663zm31.553 2.432V39.46l-4.832 12.032h-1.611l-4.833-12.032v12.032h-3.649V34.3h5.129l4.175 10.388 4.175-10.388h5.161v17.16h-3.715v.033zm6.255-8.58c0-5.16 3.781-8.876 8.975-8.876 5.194 0 8.975 3.715 8.975 8.876 0 5.162-3.781 8.877-8.975 8.877-5.194 0-8.975-3.715-8.975-8.877zm14.202 0c0-3.221-2.071-5.654-5.227-5.654s-5.194 2.433-5.194 5.654c0 3.19 2.038 5.655 5.194 5.655 3.156-.033 5.227-2.466 5.227-5.655zm5.154 6.148l1.972-2.794a7.579 7.579 0 005.457 2.3c2.006 0 2.992-.92 2.992-1.906 0-3.024-9.895-.953-9.895-7.43 0-2.86 2.465-5.227 6.509-5.227 2.728 0 4.997.822 6.706 2.4l-2.039 2.663c-1.38-1.282-3.254-1.874-4.996-1.874-1.578 0-2.432.69-2.432 1.71 0 2.728 9.861.887 9.861 7.298 0 3.156-2.235 5.523-6.87 5.523-3.288.065-5.655-1.052-7.265-2.663zm16.601 2.432V34.3h3.682v17.16h-3.682v.033zm5.922-2.432l1.972-2.794a7.579 7.579 0 005.457 2.3c2.005 0 2.992-.92 2.992-1.906 0-3.024-9.896-.953-9.896-7.43 0-2.86 2.466-5.227 6.51-5.227 2.729 0 4.996.822 6.706 2.4l-2.038 2.663c-1.381-1.282-3.255-1.874-4.997-1.874-1.578 0-2.433.69-2.433 1.71 0 2.728 9.863.887 9.863 7.298 0 3.156-2.235 5.523-6.871 5.523-3.32.065-5.688-1.052-7.265-2.663z" fill="#fff"/><path fill-rule="evenodd" clip-rule="evenodd" d="M61.7 23.344c2.254 1.67 3.505 3.17 3.895 4.67.25.848.028 1.867-.529 2.631-.556.764-1.446 1.189-2.476 1.189a4.17 4.17 0 01-1.168-.17c-.39 1.104-.668 2.179-.751 3.113l-.028.34c-2.003-3.538-5.202-6.255-9.041-7.556.11-.029.946-.283 2.42-1.189a7.143 7.143 0 01-.417-.764c-.306-.736-.195-1.953.278-2.858.39-.764 1.001-1.274 1.697-1.415.278-.057.556-.085.862-.085 1.53 0 3.45.764 5.258 2.094zm3.114 4.896c.334 1.33-.695 3.31-3.227 2.603a3.07 3.07 0 00-.64-.17c-.25.595-.529 1.274-.723 2.038a16.501 16.501 0 00-6.454-5.235l.314-.19c.345-.206.73-.436 1.132-.716-.417-.51-.723-.962-.862-1.273-.334-.793.055-2.858 1.39-3.141 1.336-.283 3.423.34 5.481 1.867 2.059 1.528 3.227 2.887 3.59 4.217z" fill="#fff"/><path d="M57.47 24.957c.556.227 1.28.623 2.17 1.217 1.057.707 1.975 1.5 2.56 2.123-.975 1.301-1.614 3.084-2.004 4.33.195.282.417.565.612.848.195-.707.529-1.754.974-2.802.111.029.25.029.39.029.333 0 .723-.057 1.029-.311.222-.17.472-.481.445-1.047 0-.538-.418-1.217-1.28-2.038-.612-.594-1.447-1.245-2.281-1.84-2.393-1.613-4.062-2.065-4.813-1.301-.5.51-.445 1.132-.278 1.585-.89.594-1.642 1.018-2.142 1.301.333.114.64.255.973.397.89-.482 2.17-1.302 3.645-2.49zm5.258 4.047a.77.77 0 01.11.368c0 .255-.083.34-.138.396-.111.085-.334.142-.529.142.167-.34.362-.623.557-.906zm-6.872-4.217c.084-.084.306-.141.668-.084-.278.226-.557.424-.835.622-.028-.198 0-.396.167-.538z" fill="#fff"/><path d="M47.094 26.004c-9.097 0-16.469 7.5-16.469 16.753 0 9.254 7.372 16.753 16.47 16.753 9.097 0 16.469-7.5 16.469-16.753 0-9.254-7.4-16.753-16.47-16.753zm0 32.572c-8.596 0-15.55-7.075-15.55-15.82 0-8.743 6.954-15.818 15.55-15.818 8.597 0 15.552 7.075 15.552 15.819s-6.983 15.819-15.552 15.819z" fill="#fff"/><path opacity=".6" d="M60.696 42.616c0 8.093-6.287 14.715-14.188 15.026h.584c8.151 0 14.772-6.735 14.772-15.026h-1.168z" fill="url(#paint0_linear)"/><path d="M51.937 35.626c1.383 0 2.504-1.14 2.504-2.547 0-1.407-1.12-2.547-2.504-2.547-1.382 0-2.503 1.14-2.503 2.547 0 1.406 1.12 2.547 2.503 2.547zm4.089 1.895c.584 0 1.057-.481 1.057-1.075s-.473-1.075-1.057-1.075-1.057.481-1.057 1.075.473 1.075 1.057 1.075z" fill="#fff"/><path fill-rule="evenodd" clip-rule="evenodd" d="M32.29 42.715a2.864 2.864 0 000 .128c.12 8.187 6.695 14.8 14.772 14.8h.027c.323 0 .644-.011.961-.032 7.705-.505 13.812-7.032 13.812-14.995h-.035c-.157-1.64-3.05-2.585-6.865-2.915-2.837-.227-5.703.056-8.986 1.075-2.837.85-5.397.708-7.26.481-4.047-.47-6.318-.535-6.423 1.359h-.004v.1zm13.77 11.843c.43 0 .78-.355.78-.792a.786.786 0 00-.78-.793.786.786 0 00-.779.793c0 .437.35.792.78.792zm4.842-1.189a.786.786 0 01-.78.793.786.786 0 01-.778-.793c0-.437.349-.792.779-.792.43 0 .779.355.779.792zm-2.783 2.632a.59.59 0 00.584-.594.59.59 0 00-.584-.594.59.59 0 00-.584.594.59.59 0 00.584.594zm4.17-1.019a.59.59 0 01-.584.594.59.59 0 01-.584-.594.59.59 0 01.584-.594.59.59 0 01.584.594zm-9.54-.707a1.29 1.29 0 001.28-1.302 1.29 1.29 0 00-1.28-1.302 1.29 1.29 0 00-1.28 1.302 1.29 1.29 0 001.28 1.302zm12.717-4.5a1.29 1.29 0 01-1.28 1.302 1.29 1.29 0 01-1.28-1.302 1.29 1.29 0 011.28-1.301c.707 0 1.28.582 1.28 1.301z" fill="#fff"/></g><defs><linearGradient id="paint0_linear" x1="63.256" y1="43.934" x2="46.912" y2="59.119" gradientUnits="userSpaceOnUse"><stop offset=".289" stop-color="#fff"/><stop offset=".78" stop-color="#fff" stop-opacity="0"/></linearGradient><clipPath id="clip0"><path fill="#fff" transform="translate(30.625 21.25)" d="M0 0h154.635v38.26H0z"/></clipPath></defs></svg>