<svg width="215" height="80" fill="none" xmlns="http://www.w3.org/2000/svg"><g style="mix-blend-mode:luminosity"><path fill-rule="evenodd" clip-rule="evenodd" d="M21 32.058v15.63l13.541 7.816 13.542-7.816v-15.63L34.54 24.242 21 32.059zm13.541-8.97L20 31.48v16.786l14.541 8.392 14.542-8.392V31.48L34.54 23.087z" fill="#fff"/><path d="M40.282 50.102h-2.069l-2.477-2.273v-1.166l2.564-2.448V40.34l3.352-2.185 3.817 2.885-5.187 9.063zm-8.567-6.12l.378-3.643-1.253-3.263h7.402l-1.224 3.263.35 3.643h-5.653zm1.69 3.847l-2.477 2.302H28.83l-5.217-9.092 3.847-2.856 3.38 2.156v3.876l2.565 2.448v1.166zM28.8 30.344h11.453l1.37 5.828H27.46l1.34-5.828zm36.604 17.31c-3.847 0-6.673-3.001-6.673-6.702 0-3.7 2.855-6.79 6.702-6.79 2.448 0 3.963.904 5.158 2.215l-1.836 1.981c-.903-.961-1.865-1.602-3.351-1.602-2.157 0-3.73 1.865-3.73 4.138 0 2.331 1.602 4.196 3.875 4.196 1.4 0 2.42-.67 3.352-1.603l1.777 1.778c-1.282 1.37-2.768 2.39-5.274 2.39zm10.896 0h-2.972V34.19H76.3v3.147c.817-1.923 2.303-3.264 4.576-3.147v3.147H80.7c-2.594 0-4.4 1.69-4.4 5.129v5.187zM96.407 34.13L89.85 51.267h-3l1.427-3.614-5.624-13.521h3.177l3.817 9.995 3.672-9.995h3.089zm8.743 2.594c-2.011 0-3.759 1.632-3.759 4.168 0 2.535 1.777 4.167 3.759 4.167 2.04 0 3.701-1.603 3.701-4.167 0-2.565-1.69-4.168-3.701-4.168zm.67 10.9c-2.127 0-3.468-1.079-4.371-2.274v5.916h-2.972V34.13h2.972v2.419c.962-1.34 2.302-2.42 4.371-2.42 3.06 0 6.032 2.42 6.032 6.732 0 4.313-2.943 6.761-6.032 6.761zm12.53-10.666v6.352c0 1.137.583 1.603 1.603 1.603h1.166v2.652h-2.04c-2.157 0-3.701-.962-3.701-3.788v-6.82h-1.632v-2.535h1.632v-3.555h2.972v3.555h2.769v2.536h-2.769zm12.123-.231c-2.39 0-3.905 1.865-3.905 4.138 0 2.302 1.632 4.196 3.934 4.196 2.39 0 3.905-1.865 3.905-4.138.058-2.302-1.603-4.197-3.934-4.197zm0 10.927c-3.934 0-6.848-3.001-6.848-6.702 0-3.73 2.943-6.79 6.906-6.79 3.963 0 6.878 3.002 6.878 6.732 0 3.672-2.915 6.76-6.936 6.76zm35.289-10.927c-2.39 0-3.905 1.865-3.905 4.138 0 2.302 1.632 4.196 3.934 4.196 2.39 0 3.905-1.865 3.905-4.138.029-2.302-1.603-4.197-3.934-4.197zm0 10.927c-3.934 0-6.848-3.001-6.848-6.702 0-3.73 2.943-6.79 6.906-6.79 3.964 0 6.878 3.002 6.878 6.732 0 3.672-2.944 6.76-6.936 6.76zm24.54-13.524c2.826 0 4.546 1.778 4.546 4.955v8.538h-2.973v-7.635c0-2.069-.961-3.147-2.622-3.147-1.603 0-2.769 1.136-2.769 3.206v7.605h-2.972v-7.664c0-2.01-.991-3.147-2.623-3.147-1.632 0-2.768 1.224-2.768 3.235v7.576h-2.973V34.16h2.973v2.215c.845-1.137 1.952-2.215 3.934-2.215 1.865 0 3.147.903 3.846 2.273 1.079-1.399 2.448-2.302 4.401-2.302zm-47.445 10.783v1.516l-.087.145-1.312.729h-.174l-1.283-.729-.087-.145v-1.516l.087-.145 1.283-.729h.174l1.312.729.087.145zm9.006 2.712c-3.846-.087-6.615-3.147-6.557-6.848.059-3.701 2.973-6.732 6.849-6.644 2.447.058 3.963.99 5.128 2.331l-1.865 1.952c-.874-.961-1.836-1.66-3.322-1.69-2.156-.029-3.759 1.778-3.788 4.08-.058 2.331 1.515 4.226 3.788 4.255 1.399.029 2.448-.612 3.381-1.545l1.748 1.807c-1.311 1.37-2.827 2.36-5.362 2.302z" fill="#E6E6E6"/></g></svg>